# xmcd
#
# Track frame offsets: 
#        150
#        25612
#        42073
#        66148
#        84909
#        99650
#        114360
#        134503
#        160648
#        178718
#        211959
#        234057
#
# Disc length: 3350 seconds
#
# Revision: 0
# Processed by: cddbd v1.5.2PL0 Copyright (c) Steve Scherf et al.
# Submitted via: ExactAudioCopy v0.95b4
#
DISCID=8a0d140c
DTITLE=InJin - Cerulean Sketches
DYEAR=2006
DGENRE=Blues
TTITLE0=You're Beautiful
TTITLE1=Good News
TTITLE2=All I Breathe is You
TTITLE3=Guardian Angel
TTITLE4=Love is a Scoundrel
TTITLE5=Pearl
TTITLE6=Heart of Blue
TTITLE7=Only Love
TTITLE8=Daddy's Girl
TTITLE9=Take Me To Your Heart
TTITLE10=Petals
TTITLE11=Brand New Feeling
EXTD=
EXTT0=
EXTT1=
EXTT2=
EXTT3=
EXTT4=
EXTT5=
EXTT6=
EXTT7=
EXTT8=
EXTT9=
EXTT10=
EXTT11=
PLAYORDER=
